<svg xmlns="http://www.w3.org/2000/svg" viewBox="0 0 320.04 117.05"><defs><style>.cls-1{fill:#231f20;stroke:#231f20;stroke-miterlimit:10;stroke-width:0.75px;}</style></defs><title>Asset 7</title><g id="Layer_2" data-name="Layer 2"><g id="_4" data-name="4"><path class="cls-1" d="M30.23,91.93H12.15l-4.7,10.25H.59L21.48,57.31l20.15,44.87h-7Zm-2.6-6L21.37,71.58,14.81,85.94Z"/><path class="cls-1" d="M66.19,76.7v8.18a15,15,0,0,0-3.77-3.53,7.35,7.35,0,0,0-3.86-1,7.6,7.6,0,0,0-5.77,2.43,8.54,8.54,0,0,0-2.3,6.1A8.73,8.73,0,0,0,52.71,95a7.47,7.47,0,0,0,5.71,2.41,7.82,7.82,0,0,0,3.91-1,15.52,15.52,0,0,0,3.86-3.61V101a16.16,16.16,0,0,1-7.49,1.94,14.34,14.34,0,0,1-10.34-4A13.32,13.32,0,0,1,44.2,89a13.5,13.5,0,0,1,4.21-10.06,14.24,14.24,0,0,1,10.34-4.1A15.45,15.45,0,0,1,66.19,76.7Z"/><path class="cls-1" d="M79.42,75.55V90.83q0,6.62,5.22,6.62t5.22-6.62V75.55H96V91a17.17,17.17,0,0,1-.79,5.52,9.28,9.28,0,0,1-2.65,3.75,11.66,11.66,0,0,1-7.93,2.71,11.62,11.62,0,0,1-7.9-2.71A9.42,9.42,0,0,1,74,96.49,15.22,15.22,0,0,1,73.27,91V75.55Z"/><path class="cls-1" d="M109.93,116.67h-6.15V75.55h6.15v2.9a11.38,11.38,0,0,1,8.26-3.64,11.51,11.51,0,0,1,9.05,4A14.61,14.61,0,0,1,130.85,89a14.39,14.39,0,0,1-3.58,10,11.67,11.67,0,0,1-17.34.22ZM124.56,89a9.2,9.2,0,0,0-2.08-6.23,6.72,6.72,0,0,0-5.3-2.43,7,7,0,0,0-5.5,2.35,8.91,8.91,0,0,0-2.11,6.18,9.1,9.1,0,0,0,2.11,6.18,6.91,6.91,0,0,0,5.47,2.38A6.67,6.67,0,0,0,122.43,95,8.74,8.74,0,0,0,124.56,89Z"/><path class="cls-1" d="M143.51,75.55V90.83q0,6.62,5.22,6.62T154,90.83V75.55h6.15V91a17.17,17.17,0,0,1-.79,5.52,9.28,9.28,0,0,1-2.65,3.75,12.93,12.93,0,0,1-15.83,0,9.42,9.42,0,0,1-2.71-3.75,15.22,15.22,0,0,1-.77-5.52V75.55Z"/><path class="cls-1" d="M167.88,75.55h6.18V78a10.08,10.08,0,0,1,7.27-3.2,9.19,9.19,0,0,1,7.25,2.93q2.24,2.49,2.24,8.12v16.32h-6.18V87.31q0-3.94-1.09-5.44t-3.88-1.53a4.75,4.75,0,0,0-4.35,2q-1.26,2-1.26,7v12.85h-6.18Z"/><path class="cls-1" d="M219.31,76.7v8.18a15,15,0,0,0-3.77-3.53,7.35,7.35,0,0,0-3.86-1,7.6,7.6,0,0,0-5.77,2.43,8.54,8.54,0,0,0-2.3,6.1A8.73,8.73,0,0,0,205.83,95a7.47,7.47,0,0,0,5.71,2.41,7.82,7.82,0,0,0,3.91-1,15.52,15.52,0,0,0,3.86-3.61V101a16.16,16.16,0,0,1-7.49,1.94,14.34,14.34,0,0,1-10.34-4,13.32,13.32,0,0,1-4.16-10,13.5,13.5,0,0,1,4.21-10.06,14.24,14.24,0,0,1,10.34-4.1A15.45,15.45,0,0,1,219.31,76.7Z"/><path class="cls-1" d="M233.85,81.29v20.89H227.7V81.29h-2.62V75.55h2.63V65.79h6.15v9.76h4.79v5.74Z"/><path class="cls-1" d="M250.1,75.55V90.83q0,6.62,5.22,6.62t5.22-6.62V75.55h6.15V91a17.17,17.17,0,0,1-.79,5.52,9.28,9.28,0,0,1-2.65,3.75,12.93,12.93,0,0,1-15.83,0,9.42,9.42,0,0,1-2.71-3.75,15.22,15.22,0,0,1-.77-5.52V75.55Z"/><path class="cls-1" d="M274.46,75.55h6.15v2.38a11.75,11.75,0,0,1,3-2.43,6.89,6.89,0,0,1,3.17-.68,9.94,9.94,0,0,1,5.09,1.59L289.06,82a5.87,5.87,0,0,0-3.42-1.26q-5,0-5,7.6v13.81h-6.15Z"/><path class="cls-1" d="M319.28,90.31H300.19a8.09,8.09,0,0,0,2.13,5.22,6.5,6.5,0,0,0,4.84,1.91,6.29,6.29,0,0,0,3.8-1.09,15.57,15.57,0,0,0,3.36-4l5.2,2.9A20.75,20.75,0,0,1,317,98.72a13.53,13.53,0,0,1-2.87,2.41,11.53,11.53,0,0,1-3.31,1.38,16.15,16.15,0,0,1-3.86.44,12.54,12.54,0,0,1-9.57-3.83q-3.61-3.86-3.61-10.23a14.75,14.75,0,0,1,3.5-10.23,13.34,13.34,0,0,1,18.65-.11q3.39,3.72,3.39,10.31Zm-6.32-5q-1.29-4.92-6.21-4.92a6.38,6.38,0,0,0-2.11.34,6,6,0,0,0-1.79,1,6.24,6.24,0,0,0-1.38,1.54,7.17,7.17,0,0,0-.87,2.05Z"/><path class="cls-1" d="M29.3,10.63l-5.17,3.06a8.89,8.89,0,0,0-2.76-3.28,6.45,6.45,0,0,0-3.53-.87,6.51,6.51,0,0,0-4.4,1.5,4.66,4.66,0,0,0-1.75,3.72q0,3.09,4.59,5l4.21,1.72A18,18,0,0,1,28,26.53a11.43,11.43,0,0,1,2.38,7.34,12.9,12.9,0,0,1-3.88,9.63,13.33,13.33,0,0,1-9.71,3.83,13,13,0,0,1-9.08-3.25,15,15,0,0,1-4.4-9.16l6.45-1.42q.44,3.72,1.53,5.14A6.63,6.63,0,0,0,17,41.36a6.66,6.66,0,0,0,4.95-2,6.91,6.91,0,0,0,2-5.06,7.14,7.14,0,0,0-.34-2.26,5.75,5.75,0,0,0-1.07-1.89,8.55,8.55,0,0,0-1.87-1.61A18.13,18.13,0,0,0,18,27.12l-4.07-1.7Q5.21,21.76,5.21,14.7a10.17,10.17,0,0,1,3.64-8A13.14,13.14,0,0,1,17.9,3.52Q25.2,3.52,29.3,10.63Z"/><path class="cls-1" d="M35.64,33.05a13.23,13.23,0,0,1,4.13-9.82,13.83,13.83,0,0,1,10.06-4A13.92,13.92,0,0,1,60,23.26a13.56,13.56,0,0,1,4.1,10,13.49,13.49,0,0,1-4.13,10,14.12,14.12,0,0,1-10.2,4,13.53,13.53,0,0,1-10-4.1A13.79,13.79,0,0,1,35.64,33.05Zm6.29.11a9,9,0,0,0,2.13,6.32,7.51,7.51,0,0,0,5.77,2.35A7.5,7.5,0,0,0,55.6,39.5a8.76,8.76,0,0,0,2.16-6.21,8.76,8.76,0,0,0-2.16-6.21,7.51,7.51,0,0,0-5.77-2.35,7.44,7.44,0,0,0-5.71,2.35A8.55,8.55,0,0,0,41.93,33.16Z"/><path class="cls-1" d="M91.29,21.07v8.18a15,15,0,0,0-3.77-3.53,7.35,7.35,0,0,0-3.86-1,7.6,7.6,0,0,0-5.77,2.43,8.54,8.54,0,0,0-2.3,6.1,8.73,8.73,0,0,0,2.21,6.15,7.46,7.46,0,0,0,5.71,2.41,7.82,7.82,0,0,0,3.91-1,15.52,15.52,0,0,0,3.86-3.61v8.12a16.17,16.17,0,0,1-7.49,1.94,14.33,14.33,0,0,1-10.34-4,13.32,13.32,0,0,1-4.16-10,13.5,13.5,0,0,1,4.21-10.06,14.24,14.24,0,0,1,10.34-4.1A15.45,15.45,0,0,1,91.29,21.07Z"/><path class="cls-1" d="M97.44,8.85a3.81,3.81,0,0,1,1.18-2.79,4,4,0,0,1,5.66,0,3.78,3.78,0,0,1,1.18,2.82,3.87,3.87,0,0,1-1.18,2.84,3.78,3.78,0,0,1-2.82,1.18,3.87,3.87,0,0,1-2.84-1.18A3.91,3.91,0,0,1,97.44,8.85Zm7.08,11.07V46.56H98.37V19.93Z"/><path class="cls-1" d="M131.95,19.93h6.18V46.56h-6.18V43.77a11.82,11.82,0,0,1-17.31-.44,14.85,14.85,0,0,1-3.58-10.17,14.39,14.39,0,0,1,3.58-10,11.55,11.55,0,0,1,9-4A11.33,11.33,0,0,1,131.95,23Zm-14.6,13.23a9.28,9.28,0,0,0,2.05,6.23,6.72,6.72,0,0,0,5.3,2.43,7.06,7.06,0,0,0,5.52-2.35,9.1,9.1,0,0,0,2.11-6.18,9.1,9.1,0,0,0-2.11-6.18,7,7,0,0,0-5.47-2.38,6.8,6.8,0,0,0-5.3,2.41A8.87,8.87,0,0,0,117.34,33.16Z"/><path class="cls-1" d="M152,.38V46.56h-6.15V.38Z"/></g></g></svg>