<svg id="Layer_1" data-name="Layer 1" xmlns="http://www.w3.org/2000/svg" viewBox="0 0 791.42 501.23"><defs><style>.cls-1{fill:#fff;}.cls-2{fill:none;stroke:#fff;stroke-miterlimit:10;stroke-width:15px;}</style></defs><title>Codogo Logo</title><g id="V3"><path class="cls-1" d="M429.64,426.52c-35.78.08-98.54,146.5-49.65,168,6.14,2.69,13.29,3.73,20.07,0,18.22-10,40.94-40.51,58.1-67.61,9.16-14.46,12.53-22.61,10.56-24.3-2.24-1.92-6.77,1.7-10.49,4.63,0,0-37.07,50.38-50.26,46.73-11.62-3.21,11.53-60.4,36.47-76.88,3.76-2.48,7.09,1.47,10.8-1.64,4.85-4.05,5.24-16.49,2.91-22.5C453.46,440.77,440.75,426.5,429.64,426.52Z" transform="translate(-104.29 -311.39)"/><path class="cls-1" d="M520.65,311.4c-35.73-1.92-82.22,275.1-60.16,282.39,6.36,2.1,13.29,3.73,20.07,0,18.22-10,40.94-40.51,58.1-67.61,9.16-14.46,12.53-22.61,10.56-24.3-2.24-1.92-6.77,1.7-10.49,4.63,0,0-37.07,50.38-50.26,46.73-11.62-3.21,46.31-226.1,44.38-235.51C531.83,312.72,524.82,311.62,520.65,311.4Z" transform="translate(-104.29 -311.39)"/><path class="cls-1" d="M318.07,427.67c-35.78.08-98.54,146.5-49.65,168,6.14,2.69,13.81,4.54,20.07,0,88.34-64.08,113.45-195.2,58.05-182.27-3.09.72-.65,5.43-2.22,11.08-2.61,9.42-8.21,21.49-9.23,22.3,0,0,13.3,51.2-16.62,90.35-11.34,14.84-12.78,20.57-22.07,18-11.62-3.21,11.53-60.4,36.47-76.88,3.76-2.48,7.09,1.47,10.8-1.64,4.85-4.05,5.24-16.49,2.91-22.5-2.26-5.85,5.31-18.68.41-23.68C341.71,425,323.83,427.66,318.07,427.67Z" transform="translate(-104.29 -311.39)"/><path class="cls-1" d="M585.94,427.1c-35.78.08-98.54,146.5-49.65,168,6.14,2.69,13.81,4.54,20.07,0C644.7,531,669.82,399.87,614.42,412.8c-3.09.72-.65,5.43-2.22,11.08-2.61,9.42-8.21,21.49-9.23,22.3,0,0,13.3,51.2-16.62,90.35-11.34,14.84-12.78,20.57-22.07,18-11.62-3.21,11.53-60.4,36.47-76.88,3.76-2.48,7.09,1.47,10.8-1.64,4.85-4.05,5.24-16.49,2.91-22.5-2.26-5.85,5.31-18.68.41-23.68C609.59,424.43,591.71,427.09,585.94,427.1Z" transform="translate(-104.29 -311.39)"/><path class="cls-1" d="M837.9,425.58c-35.78.08-98.54,146.5-49.65,168,6.14,2.69,13.81,4.54,20.07,0,88.34-64.08,113.45-195.2,58.05-182.27-3.09.72-.65,5.43-2.22,11.08-2.61,9.42-8.21,21.49-9.23,22.3,0,0,13.3,51.2-16.62,90.35-11.34,14.84-12.78,20.57-22.07,18-11.62-3.21,11.53-60.4,36.47-76.88,3.76-2.48,7.09,1.47,10.8-1.64,4.85-4.05,5.24-16.49,2.91-22.5-2.26-5.85,5.31-18.68.41-23.68C861.55,422.91,843.67,425.57,837.9,425.58Z" transform="translate(-104.29 -311.39)"/><path class="cls-1" d="M226.47,331.71c-59,.12-175.27,227.73-94.61,263.14,10.13,4.45,21.93,6.15,33.12,0,30.06-16.52,101.57-76,129.89-120.67,15.11-23.86,20.68-37.31,17.43-40.09-3.7-3.16-11.18,2.8-17.3,7.65,0,0-101.16,120.92-122.92,114.91-19.16-5.3,17-135.34,58.15-162.53,6.21-4.1,16.69,8.42,22.81,3.3,8-6.69,11.64-26.21,7.8-36.12C253.07,341.24,244.78,331.67,226.47,331.71Z" transform="translate(-104.29 -311.39)"/><path class="cls-1" d="M697.87,426.52c-35.78.08-98.54,146.5-49.65,168,6.14,2.69,13.29,3.73,20.07,0,18.22-10,40.94-40.51,58.1-67.61,9.16-14.46,12.53-22.61,10.56-24.3-2.24-1.92-6.77,1.7-10.49,4.63,0,0-37.07,50.38-50.26,46.73-11.62-3.21,11.53-60.4,36.47-76.88,3.76-2.48,7.09,1.47,10.8-1.64,4.85-4.05,5.24-16.49,2.91-22.5C721.69,440.77,709,426.5,697.87,426.52Z" transform="translate(-104.29 -311.39)"/><path class="cls-1" d="M738.5,426.52c0.43-3.16,26.81-7.57,27.23,5.55,5.6,174.43-70.4,402.32-158.55,378.88-21.1-5.61-37.71-70.52-16.88-111.6,36.43-71.85,168.81-159.1,181.12-162.62l5.5,12.74C746.79,562.75,653.84,665.88,625,703.09c-26.2,33.8-18.76,96.59.94,79.71C637.24,773.11,697.26,731.23,738.5,426.52Z" transform="translate(-104.29 -311.39)"/><path class="cls-2" d="M347.91,464.05s41-4.72,67.76-21.27" transform="translate(-104.29 -311.39)"/><path class="cls-2" d="M627.29,456.42s41-4.72,67.76-21.27" transform="translate(-104.29 -311.39)"/></g></svg>
